<?xml version="1.0" encoding="utf-8"?>
<!-- Generator: Adobe Illustrator 27.5.0, SVG Export Plug-In . SVG Version: 6.00 Build 0)  -->
<svg version="1.1" id="Layer_1" xmlns="http://www.w3.org/2000/svg" xmlns:xlink="http://www.w3.org/1999/xlink" x="0px" y="0px"
	 viewBox="0 0 125 64.3" style="enable-background:new 0 0 125 64.3;" xml:space="preserve">
<style type="text/css">
	.st0{fill:#FFFFFF;}
</style>
<g>
	<g>
		<g>
			<g>
				<path class="st0" d="M121,38.6c-2.2,0-4,1.8-4,4c0,2.2,1.8,4,4,4c2.2,0,4-1.8,4-4C125,40.4,123.2,38.6,121,38.6z M121,45.8
					c-1.8,0-3.2-1.5-3.2-3.2c0-1.8,1.5-3.2,3.2-3.2c1.8,0,3.2,1.5,3.2,3.2C124.3,44.3,122.8,45.8,121,45.8z"/>
			</g>
		</g>
		<path class="st0" d="M120.3,42.2h0.5c0.3,0,0.5,0,0.6,0c0.1,0,0.1-0.1,0.2-0.1c0.1-0.1,0.1-0.2,0.1-0.3c0-0.1,0-0.2-0.1-0.3
			c-0.1-0.1-0.2-0.1-0.3-0.1c-0.1,0-0.2,0-0.5,0h-0.6V42.2L120.3,42.2z M119.6,44.3v-3.5h1.5c0.4,0,0.6,0,0.8,0.1
			c0.2,0.1,0.3,0.2,0.4,0.3c0.1,0.2,0.2,0.3,0.2,0.6c0,0.3-0.1,0.5-0.2,0.7c-0.2,0.2-0.4,0.3-0.7,0.3c0.1,0.1,0.3,0.2,0.4,0.3
			c0.1,0.1,0.2,0.3,0.4,0.6l0.4,0.7h-0.8l-0.5-0.8c-0.2-0.3-0.3-0.4-0.4-0.5c-0.1-0.1-0.1-0.1-0.2-0.1c-0.1,0-0.2,0-0.4,0h-0.1v1.5
			L119.6,44.3L119.6,44.3z"/>
	</g>
	<g>
		<path class="st0" d="M84.9,0.4c0.9,0,1.7,0.7,1.7,1.7c0,0.9-0.7,1.7-1.7,1.7C84,3.7,83.3,3,83.3,2C83.3,1.1,84,0.4,84.9,0.4
			L84.9,0.4z"/>
		<path class="st0" d="M84.6,34.3c0.9,0,1.7,0.7,1.7,1.7c0,0.9-0.7,1.7-1.7,1.7c-0.9,0-1.7-0.7-1.7-1.7C83,35,83.7,34.3,84.6,34.3
			L84.6,34.3z"/>
		<path class="st0" d="M88.4,25.8c0.9,0,1.7,0.8,1.7,1.7c0,0.9-0.7,1.7-1.7,1.7c-0.9,0-1.7-0.8-1.7-1.7
			C86.8,26.6,87.5,25.8,88.4,25.8L88.4,25.8z"/>
		<path class="st0" d="M87.3,30c0.9,0,1.7,0.7,1.7,1.7c0,0.9-0.7,1.7-1.7,1.7c-0.9,0-1.7-0.8-1.7-1.7C85.6,30.8,86.3,30,87.3,30
			L87.3,30z"/>
		<path class="st0" d="M85.1,17.3c0.9,0,1.7,0.7,1.7,1.7c0,0.9-0.7,1.7-1.7,1.7c-0.9,0-1.7-0.7-1.7-1.7
			C83.5,18.1,84.2,17.3,85.1,17.3L85.1,17.3z"/>
		<path class="st0" d="M87.7,21.6c0.9,0,1.7,0.8,1.7,1.7c0,0.9-0.7,1.7-1.7,1.7c-0.9,0-1.7-0.7-1.7-1.7C86,22.3,86.7,21.6,87.7,21.6
			L87.7,21.6z"/>
		<path class="st0" d="M81.5,8.9c0.9,0,1.7,0.7,1.7,1.7c0,0.9-0.7,1.7-1.7,1.7c-0.9,0-1.7-0.7-1.7-1.7C79.8,9.6,80.6,8.9,81.5,8.9
			L81.5,8.9z"/>
		<path class="st0" d="M82.5,4.6c0.9,0,1.7,0.7,1.7,1.7c0,0.9-0.7,1.7-1.7,1.7c-0.9,0-1.7-0.7-1.7-1.7C80.9,5.4,81.6,4.6,82.5,4.6
			L82.5,4.6z"/>
		<path class="st0" d="M82.1,13.1c0.9,0,1.7,0.7,1.7,1.7c0,0.9-0.7,1.7-1.7,1.7c-0.9,0-1.7-0.8-1.7-1.7
			C80.5,13.9,81.2,13.1,82.1,13.1L82.1,13.1z"/>
	</g>
	<g>
		<g>
			<path class="st0" d="M78.1,2C78.1,3.1,79,4,80,4s1.9-0.9,1.9-1.9c0-1.1-0.9-1.9-1.9-1.9S78.1,1,78.1,2z M78.6,2
				c0-0.8,0.6-1.4,1.4-1.4c0.8,0,1.4,0.6,1.4,1.4c0,0.8-0.6,1.4-1.4,1.4C79.2,3.5,78.6,2.8,78.6,2z"/>
		</g>
		<g>
			<path class="st0" d="M77.8,36c0,1.1,0.9,1.9,1.9,1.9c1.1,0,1.9-0.9,1.9-1.9c0-1.1-0.9-1.9-1.9-1.9C78.7,34,77.8,34.9,77.8,36z
				 M78.3,36c0-0.8,0.6-1.4,1.4-1.4c0.8,0,1.4,0.6,1.4,1.4c0,0.8-0.6,1.4-1.4,1.4C78.9,37.4,78.3,36.7,78.3,36z"/>
		</g>
		<g>
			<path class="st0" d="M87.6,36c0,1.1,0.9,1.9,1.9,1.9c1.1,0,1.9-0.9,1.9-1.9c0-1.1-0.9-1.9-1.9-1.9C88.5,34,87.6,34.9,87.6,36z
				 M88.1,36c0-0.8,0.6-1.4,1.4-1.4c0.8,0,1.4,0.6,1.4,1.4c0,0.8-0.6,1.4-1.4,1.4C88.8,37.4,88.1,36.7,88.1,36z"/>
		</g>
		<g>
			<path class="st0" d="M87.9,2c0,1.1,0.9,1.9,1.9,1.9c1.1,0,1.9-0.9,1.9-1.9c0-1.1-0.9-1.9-1.9-1.9C88.8,0.1,87.9,1,87.9,2z
				 M88.4,2c0-0.8,0.6-1.4,1.4-1.4c0.8,0,1.4,0.6,1.4,1.4c0,0.8-0.6,1.4-1.4,1.4C89.1,3.5,88.4,2.8,88.4,2z"/>
		</g>
		<g>
			<path class="st0" d="M66.9,27.5c0,1.1,0.9,1.9,1.9,1.9c1.1,0,1.9-0.9,1.9-1.9c0-1.1-0.9-1.9-1.9-1.9
				C67.7,25.6,66.9,26.4,66.9,27.5z M67.4,27.5c0-0.8,0.6-1.4,1.4-1.4c0.8,0,1.4,0.6,1.4,1.4c0,0.8-0.6,1.4-1.4,1.4
				C68,28.9,67.4,28.3,67.4,27.5z"/>
		</g>
		<g>
			<path class="st0" d="M71.8,27.5c0,1.1,0.9,1.9,1.9,1.9c1.1,0,1.9-0.9,1.9-1.9c0-1.1-0.9-1.9-1.9-1.9
				C72.6,25.6,71.8,26.4,71.8,27.5z M72.3,27.5c0-0.8,0.6-1.4,1.4-1.4c0.8,0,1.4,0.6,1.4,1.4c0,0.8-0.6,1.4-1.4,1.4
				C72.9,28.9,72.3,28.3,72.3,27.5z"/>
		</g>
		<g>
			<path class="st0" d="M76.7,27.5c0,1.1,0.9,1.9,1.9,1.9c1.1,0,1.9-0.9,1.9-1.9c0-1.1-0.9-1.9-1.9-1.9
				C77.6,25.6,76.7,26.4,76.7,27.5z M77.2,27.5c0-0.8,0.6-1.4,1.4-1.4c0.8,0,1.4,0.6,1.4,1.4c0,0.8-0.6,1.4-1.4,1.4
				C77.8,28.9,77.2,28.3,77.2,27.5z"/>
		</g>
		<g>
			<path class="st0" d="M81.6,27.5c0,1.1,0.9,1.9,1.9,1.9c1.1,0,1.9-0.9,1.9-1.9c0-1.1-0.9-1.9-1.9-1.9
				C82.5,25.6,81.6,26.4,81.6,27.5z M82.1,27.5c0-0.8,0.6-1.4,1.4-1.4c0.8,0,1.4,0.6,1.4,1.4c0,0.8-0.6,1.4-1.4,1.4
				C82.7,28.9,82.1,28.3,82.1,27.5z"/>
		</g>
		<g>
			<path class="st0" d="M91.4,27.5c0,1.1,0.9,1.9,1.9,1.9c1.1,0,1.9-0.9,1.9-1.9c0-1.1-0.9-1.9-1.9-1.9
				C92.3,25.6,91.4,26.4,91.4,27.5z M91.9,27.5c0-0.8,0.6-1.4,1.4-1.4c0.8,0,1.4,0.6,1.4,1.4c0,0.8-0.6,1.4-1.4,1.4
				C92.6,28.9,91.9,28.3,91.9,27.5z"/>
		</g>
		<g>
			<path class="st0" d="M96.3,27.5c0,1.1,0.9,1.9,1.9,1.9c1.1,0,1.9-0.9,1.9-1.9c0-1.1-0.9-1.9-1.9-1.9
				C97.2,25.6,96.3,26.4,96.3,27.5z M96.8,27.5c0-0.8,0.6-1.4,1.4-1.4c0.8,0,1.4,0.6,1.4,1.4c0,0.8-0.6,1.4-1.4,1.4
				C97.5,28.9,96.8,28.3,96.8,27.5z"/>
		</g>
		<g>
			<path class="st0" d="M70.6,31.7c0,1.1,0.9,1.9,1.9,1.9c1.1,0,1.9-0.9,1.9-1.9c0-1.1-0.9-1.9-1.9-1.9
				C71.5,29.8,70.6,30.7,70.6,31.7z M71.1,31.7c0-0.8,0.6-1.4,1.4-1.4c0.8,0,1.4,0.6,1.4,1.4c0,0.8-0.6,1.4-1.4,1.4
				C71.8,33.2,71.1,32.5,71.1,31.7z"/>
		</g>
		<g>
			<path class="st0" d="M75.5,31.7c0,1.1,0.9,1.9,1.9,1.9c1.1,0,1.9-0.9,1.9-1.9c0-1.1-0.9-1.9-1.9-1.9
				C76.4,29.8,75.5,30.7,75.5,31.7z M76,31.7c0-0.8,0.6-1.4,1.4-1.4c0.8,0,1.4,0.6,1.4,1.4c0,0.8-0.6,1.4-1.4,1.4
				C76.7,33.2,76,32.5,76,31.7z"/>
		</g>
		<g>
			<path class="st0" d="M80.4,31.7c0,1.1,0.9,1.9,1.9,1.9c1.1,0,1.9-0.9,1.9-1.9c0-1.1-0.9-1.9-1.9-1.9
				C81.3,29.8,80.4,30.7,80.4,31.7z M80.9,31.7c0-0.8,0.6-1.4,1.4-1.4c0.8,0,1.4,0.6,1.4,1.4c0,0.8-0.6,1.4-1.4,1.4
				C81.6,33.2,80.9,32.5,80.9,31.7z"/>
		</g>
		<g>
			<path class="st0" d="M90.3,31.7c0,1.1,0.9,1.9,1.9,1.9c1.1,0,1.9-0.9,1.9-1.9c0-1.1-0.9-1.9-1.9-1.9
				C91.1,29.8,90.3,30.7,90.3,31.7z M90.8,31.7c0-0.8,0.6-1.4,1.4-1.4c0.8,0,1.4,0.6,1.4,1.4c0,0.8-0.6,1.4-1.4,1.4
				C91.4,33.2,90.8,32.5,90.8,31.7z"/>
		</g>
		<g>
			<path class="st0" d="M95.2,31.7c0,1.1,0.9,1.9,1.9,1.9c1.1,0,1.9-0.9,1.9-1.9c0-1.1-0.9-1.9-1.9-1.9C96,29.8,95.2,30.7,95.2,31.7
				z M95.7,31.7c0-0.8,0.6-1.4,1.4-1.4c0.8,0,1.4,0.6,1.4,1.4c0,0.8-0.6,1.4-1.4,1.4C96.3,33.2,95.7,32.5,95.7,31.7z"/>
		</g>
		<g>
			<path class="st0" d="M68.5,19c0,1.1,0.9,1.9,1.9,1.9c1.1,0,1.9-0.9,1.9-1.9c0-1.1-0.9-1.9-1.9-1.9C69.3,17.1,68.5,18,68.5,19z
				 M69,19c0-0.8,0.6-1.4,1.4-1.4c0.8,0,1.4,0.6,1.4,1.4c0,0.8-0.6,1.4-1.4,1.4C69.6,20.4,69,19.8,69,19z"/>
		</g>
		<g>
			<path class="st0" d="M73.4,19c0,1.1,0.9,1.9,1.9,1.9c1.1,0,1.9-0.9,1.9-1.9c0-1.1-0.9-1.9-1.9-1.9C74.3,17.1,73.4,18,73.4,19z
				 M73.9,19c0-0.8,0.6-1.4,1.4-1.4c0.8,0,1.4,0.6,1.4,1.4c0,0.8-0.6,1.4-1.4,1.4C74.5,20.4,73.9,19.8,73.9,19z"/>
		</g>
		<g>
			<path class="st0" d="M78.3,19c0,1.1,0.9,1.9,1.9,1.9c1.1,0,1.9-0.9,1.9-1.9c0-1.1-0.9-1.9-1.9-1.9C79.2,17.1,78.3,18,78.3,19z
				 M78.8,19c0-0.8,0.6-1.4,1.4-1.4c0.8,0,1.4,0.6,1.4,1.4c0,0.8-0.6,1.4-1.4,1.4C79.4,20.4,78.8,19.8,78.8,19z"/>
		</g>
		<g>
			<path class="st0" d="M88.1,19c0,1.1,0.9,1.9,1.9,1.9c1.1,0,1.9-0.9,1.9-1.9c0-1.1-0.9-1.9-1.9-1.9C89,17.1,88.1,18,88.1,19z
				 M88.6,19c0-0.8,0.6-1.4,1.4-1.4c0.8,0,1.4,0.6,1.4,1.4c0,0.8-0.6,1.4-1.4,1.4C89.2,20.4,88.6,19.8,88.6,19z"/>
		</g>
		<g>
			<path class="st0" d="M93,19c0,1.1,0.9,1.9,1.9,1.9c1.1,0,1.9-0.9,1.9-1.9c0-1.1-0.9-1.9-1.9-1.9C93.9,17.1,93,18,93,19z M93.5,19
				c0-0.8,0.6-1.4,1.4-1.4c0.8,0,1.4,0.6,1.4,1.4c0,0.8-0.6,1.4-1.4,1.4C94.2,20.4,93.5,19.8,93.5,19z"/>
		</g>
		<g>
			<path class="st0" d="M97.9,19c0,1.1,0.9,1.9,1.9,1.9c1.1,0,1.9-0.9,1.9-1.9c0-1.1-0.9-1.9-1.9-1.9C98.8,17.1,97.9,18,97.9,19z
				 M98.4,19c0-0.8,0.6-1.4,1.4-1.4c0.8,0,1.4,0.6,1.4,1.4c0,0.8-0.6,1.4-1.4,1.4C99.1,20.4,98.4,19.8,98.4,19z"/>
		</g>
		<g>
			<path class="st0" d="M66.7,21.9c-0.4,0.4-0.6,0.8-0.6,1.4c0,1.1,0.9,1.9,1.9,1.9c1.1,0,1.9-0.9,1.9-1.9c0-0.5-0.2-1-0.6-1.4
				c-0.4-0.4-0.8-0.6-1.4-0.6C67.5,21.3,67,21.5,66.7,21.9z M66.6,23.2c0-0.4,0.1-0.7,0.4-1c0.3-0.3,0.6-0.4,1-0.4
				c0.4,0,0.7,0.1,1,0.4c0.3,0.3,0.4,0.6,0.4,1c0,0.8-0.6,1.4-1.4,1.4C67.2,24.7,66.6,24,66.6,23.2z"/>
		</g>
		<g>
			<path class="st0" d="M71.6,21.9c-0.4,0.4-0.6,0.8-0.6,1.4c0,1.1,0.9,1.9,1.9,1.9c1.1,0,1.9-0.9,1.9-1.9c0-0.5-0.2-1-0.6-1.4
				c-0.4-0.4-0.8-0.6-1.4-0.6C72.4,21.3,71.9,21.5,71.6,21.9z M71.5,23.2c0-0.4,0.1-0.7,0.4-1c0.3-0.3,0.6-0.4,1-0.4
				c0.4,0,0.7,0.1,1,0.4c0.3,0.3,0.4,0.6,0.4,1c0,0.8-0.6,1.4-1.4,1.4C72.2,24.7,71.5,24,71.5,23.2z"/>
		</g>
		<g>
			<path class="st0" d="M76.5,21.9c-0.4,0.4-0.6,0.8-0.6,1.4c0,1.1,0.9,1.9,1.9,1.9c1.1,0,1.9-0.9,1.9-1.9c0-1.1-0.9-1.9-1.9-1.9
				C77.3,21.3,76.9,21.5,76.5,21.9z M76.4,23.2c0-0.4,0.1-0.7,0.4-1c0.3-0.3,0.6-0.4,1-0.4c0.8,0,1.4,0.6,1.4,1.4s-0.6,1.4-1.4,1.4
				C77.1,24.7,76.4,24,76.4,23.2z"/>
		</g>
		<g>
			<path class="st0" d="M81.4,21.9c-0.4,0.4-0.6,0.8-0.6,1.4c0,1.1,0.9,1.9,1.9,1.9c1.1,0,1.9-0.9,1.9-1.9c0-0.5-0.2-1-0.6-1.4
				c-0.4-0.4-0.8-0.6-1.4-0.6C82.2,21.3,81.8,21.5,81.4,21.9z M81.3,23.2c0-0.4,0.1-0.7,0.4-1c0.3-0.3,0.6-0.4,1-0.4
				c0.4,0,0.7,0.1,1,0.4c0.3,0.3,0.4,0.6,0.4,1c0,0.8-0.6,1.4-1.4,1.4C82,24.7,81.3,24,81.3,23.2z"/>
		</g>
		<g>
			<path class="st0" d="M91.2,21.9c-0.4,0.4-0.6,0.8-0.6,1.4c0,1.1,0.9,1.9,1.9,1.9s1.9-0.9,1.9-1.9c0-0.5-0.2-1-0.6-1.4
				c-0.4-0.4-0.8-0.6-1.4-0.6C92.1,21.3,91.6,21.5,91.2,21.9z M91.2,23.2c0-0.4,0.1-0.7,0.4-1c0.3-0.3,0.6-0.4,1-0.4
				c0.4,0,0.7,0.1,1,0.4c0.3,0.3,0.4,0.6,0.4,1c0,0.8-0.6,1.4-1.4,1.4C91.8,24.7,91.2,24,91.2,23.2z"/>
		</g>
		<g>
			<path class="st0" d="M96.1,21.9c-0.4,0.4-0.6,0.8-0.6,1.4c0,1.1,0.9,1.9,1.9,1.9c1.1,0,1.9-0.9,1.9-1.9c0-0.5-0.2-1-0.6-1.4
				c-0.4-0.4-0.8-0.6-1.4-0.6C97,21.3,96.5,21.5,96.1,21.9z M96.1,23.2c0-0.4,0.1-0.7,0.4-1c0.3-0.3,0.6-0.4,1-0.4
				c0.4,0,0.7,0.1,1,0.4c0.3,0.3,0.4,0.6,0.4,1c0,0.8-0.6,1.4-1.4,1.4C96.7,24.7,96.1,24,96.1,23.2z"/>
		</g>
		<g>
			<path class="st0" d="M101,21.9c-0.4,0.4-0.6,0.8-0.6,1.4c0,1.1,0.9,1.9,1.9,1.9c1.1,0,1.9-0.9,1.9-1.9c0-0.5-0.2-1-0.6-1.4
				c-0.4-0.4-0.8-0.6-1.4-0.6C101.9,21.3,101.4,21.5,101,21.9z M101,23.2c0-0.4,0.1-0.7,0.4-1c0.3-0.3,0.6-0.4,1-0.4
				c0.4,0,0.7,0.1,1,0.4c0.3,0.3,0.4,0.6,0.4,1c0,0.8-0.6,1.4-1.4,1.4C101.6,24.7,101,24,101,23.2z"/>
		</g>
		<g>
			<path class="st0" d="M70.3,9.2c-0.4,0.4-0.6,0.8-0.6,1.4c0,1.1,0.9,1.9,1.9,1.9c1.1,0,1.9-0.9,1.9-1.9c0-1.1-0.9-1.9-1.9-1.9
				C71.2,8.6,70.7,8.8,70.3,9.2z M70.2,10.5c0-0.4,0.1-0.7,0.4-1c0.3-0.3,0.6-0.4,1-0.4c0.8,0,1.4,0.6,1.4,1.4
				c0,0.8-0.6,1.4-1.4,1.4C70.9,12,70.2,11.3,70.2,10.5z"/>
		</g>
		<g>
			<path class="st0" d="M75.2,9.2c-0.4,0.4-0.6,0.8-0.6,1.4c0,1.1,0.9,1.9,1.9,1.9c1.1,0,1.9-0.9,1.9-1.9c0-1.1-0.9-1.9-1.9-1.9
				C76.1,8.6,75.6,8.8,75.2,9.2z M75.2,10.5c0-0.4,0.1-0.7,0.4-1c0.3-0.3,0.6-0.4,1-0.4c0.8,0,1.4,0.6,1.4,1.4
				c0,0.8-0.6,1.4-1.4,1.4C75.8,12,75.2,11.3,75.2,10.5z"/>
		</g>
		<g>
			<path class="st0" d="M84.5,10.5c0,1.1,0.9,1.9,1.9,1.9c1.1,0,1.9-0.9,1.9-1.9c0-1.1-0.9-1.9-1.9-1.9C85.3,8.6,84.5,9.5,84.5,10.5
				z M85,10.5c0-0.8,0.6-1.4,1.4-1.4c0.8,0,1.4,0.6,1.4,1.4c0,0.8-0.6,1.4-1.4,1.4C85.6,12,85,11.3,85,10.5z"/>
		</g>
		<g>
			<path class="st0" d="M89.4,10.5c0,1.1,0.9,1.9,1.9,1.9c1.1,0,1.9-0.9,1.9-1.9c0-1.1-0.9-1.9-1.9-1.9C90.3,8.6,89.4,9.5,89.4,10.5
				z M89.9,10.5c0-0.8,0.6-1.4,1.4-1.4c0.8,0,1.4,0.6,1.4,1.4c0,0.8-0.6,1.4-1.4,1.4C90.5,12,89.9,11.3,89.9,10.5z"/>
		</g>
		<g>
			<path class="st0" d="M94.3,10.5c0,1.1,0.9,1.9,1.9,1.9c1.1,0,1.9-0.9,1.9-1.9c0-1.1-0.9-1.9-1.9-1.9C95.2,8.6,94.3,9.5,94.3,10.5
				z M94.8,10.5c0-0.8,0.6-1.4,1.4-1.4c0.8,0,1.4,0.6,1.4,1.4c0,0.8-0.6,1.4-1.4,1.4C95.4,12,94.8,11.3,94.8,10.5z"/>
		</g>
		<g>
			<path class="st0" d="M70.8,6.3c0,1.1,0.9,1.9,1.9,1.9c1.1,0,1.9-0.9,1.9-1.9c0-1.1-0.9-1.9-1.9-1.9C71.7,4.4,70.8,5.2,70.8,6.3z
				 M71.3,6.3c0-0.8,0.6-1.4,1.4-1.4c0.8,0,1.4,0.6,1.4,1.4c0,0.8-0.6,1.4-1.4,1.4C71.9,7.7,71.3,7.1,71.3,6.3z"/>
		</g>
		<g>
			<path class="st0" d="M75.7,6.3c0,1.1,0.9,1.9,1.9,1.9c1.1,0,1.9-0.9,1.9-1.9c0-1.1-0.9-1.9-1.9-1.9C76.6,4.4,75.7,5.2,75.7,6.3z
				 M76.2,6.3c0-0.8,0.6-1.4,1.4-1.4c0.8,0,1.4,0.6,1.4,1.4c0,0.8-0.6,1.4-1.4,1.4C76.9,7.7,76.2,7.1,76.2,6.3z"/>
		</g>
		<g>
			<path class="st0" d="M85.5,6.3c0,1.1,0.9,1.9,1.9,1.9c1.1,0,1.9-0.9,1.9-1.9c0-1.1-0.9-1.9-1.9-1.9C86.4,4.4,85.5,5.2,85.5,6.3z
				 M86,6.3c0-0.8,0.6-1.4,1.4-1.4c0.8,0,1.4,0.6,1.4,1.4c0,0.8-0.6,1.4-1.4,1.4C86.7,7.7,86,7.1,86,6.3z"/>
		</g>
		<g>
			<path class="st0" d="M90.5,6.3c0,1.1,0.9,1.9,1.9,1.9c1.1,0,1.9-0.9,1.9-1.9c0-1.1-0.9-1.9-1.9-1.9C91.3,4.4,90.5,5.2,90.5,6.3z
				 M90.9,6.3c0-0.8,0.6-1.4,1.4-1.4c0.8,0,1.4,0.6,1.4,1.4c0,0.8-0.6,1.4-1.4,1.4C91.6,7.7,90.9,7.1,90.9,6.3z"/>
		</g>
		<g>
			<path class="st0" d="M95.4,6.3c0,1.1,0.9,1.9,1.9,1.9s1.9-0.9,1.9-1.9c0-1.1-0.9-1.9-1.9-1.9C96.2,4.4,95.4,5.2,95.4,6.3z
				 M95.9,6.3c0-0.8,0.6-1.4,1.4-1.4c0.8,0,1.4,0.6,1.4,1.4c0,0.8-0.6,1.4-1.4,1.4C96.5,7.7,95.9,7.1,95.9,6.3z"/>
		</g>
		<g>
			<path class="st0" d="M65.5,14.8c0,1.1,0.9,1.9,1.9,1.9c1.1,0,1.9-0.9,1.9-1.9c0-1.1-0.9-1.9-1.9-1.9
				C66.3,12.9,65.5,13.7,65.5,14.8z M66,14.8c0-0.8,0.6-1.4,1.4-1.4c0.8,0,1.4,0.6,1.4,1.4c0,0.8-0.6,1.4-1.4,1.4
				C66.6,16.2,66,15.6,66,14.8z"/>
		</g>
		<g>
			<path class="st0" d="M70.4,14.8c0,1.1,0.9,1.9,1.9,1.9c1.1,0,1.9-0.9,1.9-1.9c0-1.1-0.9-1.9-1.9-1.9
				C71.2,12.9,70.4,13.7,70.4,14.8z M70.9,14.8c0-0.8,0.6-1.4,1.4-1.4c0.8,0,1.4,0.6,1.4,1.4c0,0.8-0.6,1.4-1.4,1.4
				C71.5,16.2,70.9,15.6,70.9,14.8z"/>
		</g>
		<g>
			<path class="st0" d="M75.3,14.8c0,1.1,0.9,1.9,1.9,1.9c1.1,0,1.9-0.9,1.9-1.9c0-1.1-0.9-1.9-1.9-1.9
				C76.2,12.9,75.3,13.7,75.3,14.8z M75.8,14.8c0-0.8,0.6-1.4,1.4-1.4c0.8,0,1.4,0.6,1.4,1.4c0,0.8-0.6,1.4-1.4,1.4
				C76.4,16.2,75.8,15.6,75.8,14.8z"/>
		</g>
		<g>
			<path class="st0" d="M85.1,14.8c0,1.1,0.9,1.9,1.9,1.9c1.1,0,1.9-0.9,1.9-1.9c0-0.5-0.2-1-0.6-1.4c-0.4-0.4-0.8-0.6-1.4-0.6
				C86,12.9,85.1,13.7,85.1,14.8z M85.6,14.8c0-0.8,0.6-1.4,1.4-1.4c0.4,0,0.7,0.1,1,0.4c0.3,0.3,0.4,0.6,0.4,1
				c0,0.8-0.6,1.4-1.4,1.4C86.2,16.2,85.6,15.6,85.6,14.8z"/>
		</g>
		<g>
			<path class="st0" d="M90,14.8c0,1.1,0.9,1.9,1.9,1.9c1.1,0,1.9-0.9,1.9-1.9c0-1.1-0.9-1.9-1.9-1.9C90.9,12.9,90,13.7,90,14.8z
				 M90.5,14.8c0-0.8,0.6-1.4,1.4-1.4c0.8,0,1.4,0.6,1.4,1.4c0,0.8-0.6,1.4-1.4,1.4C91.2,16.2,90.5,15.6,90.5,14.8z"/>
		</g>
		<g>
			<path class="st0" d="M94.9,14.8c0,1.1,0.9,1.9,1.9,1.9c1.1,0,1.9-0.9,1.9-1.9c0-1.1-0.9-1.9-1.9-1.9
				C95.8,12.9,94.9,13.7,94.9,14.8z M95.4,14.8c0-0.8,0.6-1.4,1.4-1.4c0.8,0,1.4,0.6,1.4,1.4c0,0.8-0.6,1.4-1.4,1.4
				C96.1,16.2,95.4,15.6,95.4,14.8z"/>
		</g>
		<g>
			<path class="st0" d="M100.4,13.4c-0.4,0.4-0.6,0.8-0.6,1.4c0,0.5,0.2,1,0.6,1.4c0.4,0.4,0.8,0.6,1.4,0.6c1.1,0,1.9-0.9,1.9-1.9
				c0-1.1-0.9-1.9-1.9-1.9C101.2,12.9,100.8,13.1,100.4,13.4z M100.7,15.8c-0.3-0.3-0.4-0.6-0.4-1c0-0.4,0.1-0.7,0.4-1
				c0.3-0.3,0.6-0.4,1-0.4c0.8,0,1.4,0.6,1.4,1.4c0,0.8-0.6,1.4-1.4,1.4C101.4,16.2,101,16.1,100.7,15.8z"/>
		</g>
	</g>
	<g>
		<path class="st0" d="M10.1,42.4c-1.9,0-3.9,1-3.9,3.2c0,2.7,2.4,3,4.5,3.4c3.7,1,9.2,2,9.2,7c0,6.1-5.3,8.2-10.5,8.2
			c-5.6,0-9.6-2.2-9.4-8.4h5.3c-0.2,2.7,1.4,4.6,4.1,4.6c2.1,0,4.9-0.6,4.9-3.3c0-2.9-3.5-3.1-5.6-3.6c-3.4-0.9-8.1-2.4-8.1-6.8
			c0-5.6,5.1-8.1,10.2-8.1c4.8,0,8.5,2.6,8.5,7.5l-5.1,0C14,43.6,12.6,42.4,10.1,42.4L10.1,42.4z"/>
		<path class="st0" d="M31.5,64.2c-5.5,0-8.9-3.7-8.9-9.1c0-5.4,3.3-9,8.9-9c5.5,0,8.9,3.7,8.9,9C40.4,60.5,37.1,64.2,31.5,64.2
			L31.5,64.2z M31.5,60.7c3.1,0,3.6-2.9,3.6-5.6c0-2.7-0.5-5.6-3.6-5.6c-3.1,0-3.6,2.9-3.6,5.6C27.9,57.8,28.4,60.7,31.5,60.7
			L31.5,60.7z"/>
		<path class="st0" d="M48.4,46.5h3.1V50h-3.1v13.7h-5.1V50h-2.5v-3.4h2.5c-0.1-4.8,0.3-8,5.8-8c0.9,0,1.9,0.1,2.8,0.2V42
			C48.3,41.6,48.2,43.2,48.4,46.5L48.4,46.5z"/>
		<path class="st0" d="M56.2,43.2l5.1-1.8v5.2h3.8V50h-3.8v7.9c0,2.2,0.3,2.9,2.1,2.9c0.5,0,1.1-0.1,1.6-0.1v3
			c-0.6,0.3-3.3,0.5-4,0.5c-4,0-4.8-2.1-4.8-5.8V50h-3.4v-3.4h3.4L56.2,43.2L56.2,43.2z"/>
		<path class="st0" d="M70,43.2l5.1-1.8v5.2H79V50h-3.8v7.9c0,2.2,0.3,2.9,2.1,2.9c0.5,0,1.1-0.1,1.6-0.1v3c-0.6,0.3-3.3,0.5-4,0.5
			c-4,0-4.8-2.1-4.8-5.8V50h-3.4v-3.4H70L70,43.2L70,43.2z"/>
		<path class="st0" d="M85.2,56.5c0,2.2,0.3,4.3,2.9,4.3c1.8,0,2.7-0.6,3.1-2.2h4.6c-0.4,4.2-3.7,5.6-7.7,5.6c-5.9,0-8.2-3.3-8.2-9
			c0-5.1,3-9.1,8.2-9.1c3.2,0,5.9,1.1,7.3,4.1c0.5,1,0.7,2,0.8,3.1c0.1,1.1,0.1,2.1,0.1,3.3L85.2,56.5L85.2,56.5z M91.1,53.1
			c0-1.9-0.5-3.6-3-3.6c-2.4,0-2.9,1.7-2.9,3.6H91.1L91.1,53.1z"/>
		<polygon class="st0" points="103.7,53.5 108.7,46.4 114.3,46.4 108.5,53.9 114.7,63.7 108.8,63.7 103.7,54.3 103.6,54.4 
			103.6,63.7 98.5,63.7 98.5,39 103.6,39 103.6,53.5 		"/>
	</g>
</g>
</svg>
